<svg id="Layer_1" data-name="Layer 1" xmlns="http://www.w3.org/2000/svg" xmlns:xlink="http://www.w3.org/1999/xlink" viewBox="0 0 250.51 70.07"><defs><style>.cls-1{fill:#0078b8;}.cls-2{fill:url(#linear-gradient);}.cls-3{fill:url(#linear-gradient-2);}</style><linearGradient id="linear-gradient" x1="-0.66" y1="39.65" x2="93.47" y2="-17.82" gradientUnits="userSpaceOnUse"><stop offset="0.2" stop-color="#00b4ba"/><stop offset="0.75" stop-color="#9ae6ff"/></linearGradient><linearGradient id="linear-gradient-2" x1="31.82" y1="77.31" x2="36.66" y2="31.07" gradientUnits="userSpaceOnUse"><stop offset="0.46" stop-color="#00b4ba"/><stop offset="1" stop-color="#9ae6ff"/></linearGradient></defs><title>logo</title><path class="cls-1" d="M63.33,51.07l3.52,3.52-1.73,1.73a12.52,12.52,0,0,1-17.77,0,12,12,0,0,1-2.74-4.16,13.16,13.16,0,0,1-.89-4.72,13,13,0,0,1,.89-4.7,12.07,12.07,0,0,1,2.74-4.13,12.38,12.38,0,0,1,4.16-2.77,12.59,12.59,0,0,1,9.45,0,12.38,12.38,0,0,1,4.16,2.77l1.73,1.73L52.94,54.25A7.44,7.44,0,0,0,61.6,52.8Zm-12.46-9a7.49,7.49,0,0,0-1.45,8.66l2-2,2.9-2.9c1-1,2-2,3-2.94l2.2-2.17A7.49,7.49,0,0,0,55,40,7.17,7.17,0,0,0,50.87,42.07Z"/><path class="cls-1" d="M72.22,38.5a12.18,12.18,0,0,1,4.16-2.77,12.57,12.57,0,0,1,9.44,0A12.28,12.28,0,0,1,90,38.5l1.74,1.73-3.47,3.52L86.46,42A7.29,7.29,0,0,0,84,40.34a7.53,7.53,0,0,0-5.7,0A7.29,7.29,0,0,0,75.74,42a6.75,6.75,0,0,0-1.68,2.46,7.51,7.51,0,0,0,0,5.69,7.65,7.65,0,0,0,7,4.75,7.75,7.75,0,0,0,2.9-.55,6.92,6.92,0,0,0,2.46-1.68L88.25,51l3.47,3.52L90,56.21A12.11,12.11,0,0,1,85.82,59a12.44,12.44,0,0,1-9.44,0,12,12,0,0,1-4.16-2.76,11.88,11.88,0,0,1-2.74-4.14,12.83,12.83,0,0,1,0-9.44A11.84,11.84,0,0,1,72.22,38.5Z"/><path class="cls-1" d="M106.24,34.81a12.24,12.24,0,0,1,4.89,1,13,13,0,0,1,4,2.68,12.67,12.67,0,0,1,2.71,4,12.15,12.15,0,0,1,1,4.88V59.9h-5V47.32a7.2,7.2,0,0,0-.59-2.93,7.59,7.59,0,0,0-1.62-2.4,7.5,7.5,0,0,0-2.43-1.62,7.59,7.59,0,0,0-3-.59,7.37,7.37,0,0,0-2.93.59,7.6,7.6,0,0,0-4,4,7.37,7.37,0,0,0-.59,2.93V59.9h-5V27.3a2.55,2.55,0,0,1,2.54-2.55h0a2.43,2.43,0,0,1,2.43,2.43v10.2a12.05,12.05,0,0,1,3.49-1.9A12.2,12.2,0,0,1,106.24,34.81Z"/><path class="cls-1" d="M121.24,42.49a12.59,12.59,0,0,1,6.68-6.65,12.62,12.62,0,0,1,9.75,0,13.31,13.31,0,0,1,4,2.68,12.67,12.67,0,0,1,2.71,4,12.23,12.23,0,0,1,1,4.89V60h-5V47.38a7.37,7.37,0,0,0-.59-2.93A7.52,7.52,0,0,0,138.17,42a7.83,7.83,0,0,0-2.43-1.62,7.58,7.58,0,0,0-3-.58,7.37,7.37,0,0,0-2.93.58,7.81,7.81,0,0,0-2.4,1.62,7.52,7.52,0,0,0-1.62,2.41,7.2,7.2,0,0,0-.59,2.93V60h-5V47.38A12.23,12.23,0,0,1,121.24,42.49Z"/><path class="cls-1" d="M147,47.44a12.07,12.07,0,0,1,1-4.89,12.59,12.59,0,0,1,2.68-4,12.45,12.45,0,0,1,4-2.68,12.32,12.32,0,0,1,4.87-1,12.19,12.19,0,0,1,4.88,1,13,13,0,0,1,4,2.68,12.51,12.51,0,0,1,2.71,4,12.62,12.62,0,0,1,0,9.75A12.74,12.74,0,0,1,164.43,59a12.19,12.19,0,0,1-4.88,1,12.38,12.38,0,0,1-8.86-3.69,12.7,12.7,0,0,1-2.68-4A12.13,12.13,0,0,1,147,47.44Zm4.92,0a7.58,7.58,0,0,0,.58,3,7.45,7.45,0,0,0,4.05,4.05,7.75,7.75,0,0,0,5.93,0,7.45,7.45,0,0,0,4.05-4.05,7.58,7.58,0,0,0,.58-3,7.42,7.42,0,0,0-.58-2.94,7.59,7.59,0,0,0-1.62-2.4,7.5,7.5,0,0,0-2.43-1.62,7.75,7.75,0,0,0-5.93,0,7.5,7.5,0,0,0-2.43,1.62,7.59,7.59,0,0,0-1.62,2.4A7.42,7.42,0,0,0,152,47.44Z"/><path class="cls-1" d="M186.37,34.92a12.15,12.15,0,0,1,4.88,1,13,13,0,0,1,4,2.68,12.51,12.51,0,0,1,2.71,4,12.62,12.62,0,0,1,0,9.75A12.74,12.74,0,0,1,191.25,59a12.15,12.15,0,0,1-4.88,1h-7.55v7.63a2.42,2.42,0,0,1-2.42,2.43h0a2.55,2.55,0,0,1-2.55-2.55V47.44a12.24,12.24,0,0,1,1-4.89,12.52,12.52,0,0,1,6.67-6.65A12.32,12.32,0,0,1,186.37,34.92Zm3,19.53a7.45,7.45,0,0,0,4-4.05,7.58,7.58,0,0,0,.58-3,7.42,7.42,0,0,0-.58-2.94,7.59,7.59,0,0,0-1.62-2.4,7.5,7.5,0,0,0-2.43-1.62,7.59,7.59,0,0,0-3-.59,7.39,7.39,0,0,0-2.94.59,7.6,7.6,0,0,0-4,4,7.42,7.42,0,0,0-.59,2.94V55h7.55A7.59,7.59,0,0,0,189.33,54.45Z"/><path class="cls-1" d="M220.23,51.07l3.51,3.52L222,56.32a12.57,12.57,0,0,1-13.69,2.74,12.64,12.64,0,0,1-4.08-2.74,12,12,0,0,1-2.73-4.16,13,13,0,0,1-.9-4.72,12.78,12.78,0,0,1,.9-4.7,12,12,0,0,1,2.73-4.13,12.32,12.32,0,0,1,4.17-2.77,12.57,12.57,0,0,1,9.44,0A12.28,12.28,0,0,1,222,38.61l1.73,1.73L209.83,54.25a7.44,7.44,0,0,0,8.66-1.45Zm-12.46-9a7.47,7.47,0,0,0-1.46,8.66q.67-.66,2-2l2.91-2.9c1-1,2-2,3-2.94l2.2-2.17a7.47,7.47,0,0,0-4.49-.73A7.14,7.14,0,0,0,207.77,42.07Z"/><path class="cls-1" d="M249.14,43a12.44,12.44,0,0,1-3.72,4.33,12.54,12.54,0,0,1,3.72,4.36,12.17,12.17,0,0,1,1.37,5.7V59.9h-5V57.38a7.37,7.37,0,0,0-.59-2.93,7.6,7.6,0,0,0-4-4,7.29,7.29,0,0,0-2.94-.59,7.42,7.42,0,0,0-3,.59,7.5,7.5,0,0,0-2.43,1.62,7.59,7.59,0,0,0-1.62,2.4,7.37,7.37,0,0,0-.59,2.93V59.9h-5V27.3A2.55,2.55,0,0,1,228,24.75h0a2.42,2.42,0,0,1,2.42,2.43V47.44a12.67,12.67,0,0,1,3.55-1.9,12.2,12.2,0,0,1,4.05-.67,7.46,7.46,0,0,0,2.94-.59,7.59,7.59,0,0,0,2.4-1.62A7.5,7.5,0,0,0,245,40.23a7.59,7.59,0,0,0,.59-3h0A2.46,2.46,0,0,1,248,34.81h.06a2.46,2.46,0,0,1,2.46,2.46h0A12.11,12.11,0,0,1,249.14,43Z"/><path class="cls-2" d="M50.54.43,2.71,24.28l43.91-.19L55.78,5.66A3.9,3.9,0,0,0,50.54.43Z"/><polygon class="cls-3" points="30.03 57.43 42.73 31.92 30.42 31.92 30.03 57.43"/><path class="cls-1" d="M0,28H0a3.91,3.91,0,0,0,3.9,3.91H22.59V55.78A3.91,3.91,0,0,0,30,57.52v0a3.9,3.9,0,0,0,.41-1.74V35.82a3.91,3.91,0,0,1,3.91-3.9h8.4l3.89-7.83H3.91A3.91,3.91,0,0,0,0,28Z"/></svg>