<?xml version="1.0" encoding="UTF-8" standalone="no"?>
<svg
   width="1842"
   height="407"
   version="1.1"
   id="svg3"
   sodipodi:docname="tekknowv1.svg"
   inkscape:version="1.3 (0e150ed6c4, 2023-07-21)"
   xmlns:inkscape="http://www.inkscape.org/namespaces/inkscape"
   xmlns:sodipodi="http://sodipodi.sourceforge.net/DTD/sodipodi-0.dtd"
   xmlns="http://www.w3.org/2000/svg"
   xmlns:svg="http://www.w3.org/2000/svg">
  <sodipodi:namedview
     id="namedview3"
     pagecolor="#ffffff"
     bordercolor="#000000"
     borderopacity="0.25"
     inkscape:showpageshadow="2"
     inkscape:pageopacity="0.0"
     inkscape:pagecheckerboard="0"
     inkscape:deskcolor="#d1d1d1"
     inkscape:zoom="0.35355339"
     inkscape:cx="804.68751"
     inkscape:cy="371.93817"
     inkscape:window-width="1920"
     inkscape:window-height="1009"
     inkscape:window-x="1912"
     inkscape:window-y="-8"
     inkscape:window-maximized="1"
     inkscape:current-layer="g3" />
  <defs
     id="defs1">
    <clipPath
       id="a">
      <path
         d="M0 0h1842v407H0z"
         id="path1" />
    </clipPath>
  </defs>
  <g
     fill="#fff"
     clip-path="url(#a)"
     id="g3">
    <path
       d="m 1542.2207,140.0625 c -2.3242,-0.23701 -4.9668,-0.18722 -8.0391,0.0996 -3.0722,0.28683 -6.5743,0.81086 -10.6152,1.52344 -4.0409,0.71258 -8.6216,1.61404 -13.8516,2.65429 24.898,58.84494 49.5817,117.22591 74.3067,175.58985 0.7294,1.72137 1.5486,3.23819 2.4512,4.57617 0.9026,1.33798 1.8872,2.49581 2.9453,3.5 1.058,1.00419 2.191,1.85423 3.3867,2.57422 1.1957,0.71998 2.4559,1.3115 3.7715,1.79687 1.3155,0.48538 2.6859,0.86566 4.1035,1.16602 1.4176,0.30036 2.8809,0.52061 4.3828,0.68555 3.0038,0.32987 6.1583,0.43768 9.3926,0.52343 3.2662,0.0865 6.2246,-0.10784 8.9062,-0.64062 1.3409,-0.26639 2.6136,-0.61781 3.8203,-1.06055 1.2068,-0.44274 2.349,-0.97594 3.4297,-1.60937 1.0807,-0.63344 2.0998,-1.36659 3.0625,-2.20508 0.9628,-0.83849 1.868,-1.78391 2.7207,-2.8418 0.8528,-1.05789 1.6535,-2.22789 2.4043,-3.51953 0.7509,-1.29164 1.4524,-2.70439 2.1094,-4.24414 5.063,-11.86549 10.3851,-23.61948 16.0117,-35.83984 5.6266,-12.22037 11.5575,-24.90774 17.836,-38.63672 5.6275,12.69448 10.9475,24.33523 15.955,35.51172 5.0075,11.17648 9.7026,21.88998 14.0821,32.73046 0.7786,1.92713 1.593,3.73326 2.459,5.41993 0.8659,1.68666 1.7835,3.25341 2.7656,4.69726 0.9821,1.44385 2.0291,2.76617 3.1562,3.96485 1.1272,1.19868 2.3338,2.27345 3.6348,3.2246 1.301,0.95116 2.6975,1.77725 4.2012,2.47852 1.5036,0.70128 3.1144,1.27752 4.8496,1.72656 1.7352,0.44904 3.5943,0.77235 5.5898,0.9668 1.9956,0.19445 4.1274,0.25977 6.4121,0.19727 2.1804,-0.0598 4.2063,-0.24618 6.0938,-0.55665 1.8874,-0.31046 3.6363,-0.7436 5.2617,-1.29296 1.6254,-0.54937 3.1292,-1.21574 4.5234,-1.99219 1.3943,-0.77645 2.6791,-1.66453 3.8731,-2.65625 1.1939,-0.99172 2.2957,-2.08804 3.3203,-3.2832 1.0245,-1.19517 1.9734,-2.4882 2.8594,-3.875 1.772,-2.77361 3.2962,-5.91943 4.6992,-9.38868 3.102,-7.67199 6.0474,-15.42729 9.1348,-23.11328 1.5436,-3.84299 3.1221,-7.66828 4.7753,-11.45703 1.6533,-3.78874 3.3805,-7.54033 5.2188,-11.23633 2.2682,-4.56137 4.3975,-9.18725 6.4316,-13.85547 2.0342,-4.66821 3.9722,-9.37998 5.8633,-14.11328 3.7823,-9.4666 7.3702,-19.02162 11.127,-28.49804 1.8784,-4.73822 3.7999,-9.45673 5.8086,-14.13477 2.0086,-4.67804 4.1058,-9.31451 6.3359,-13.89062 2.2301,-4.57612 4.5922,-9.09101 7.1348,-13.52344 2.5425,-4.43243 5.2648,-8.7823 8.2109,-13.0293 l 0.6914,-13.73828 c -13.3565,-0.41625 -22.5669,-0.90203 -29.1855,-0.73633 -3.3094,0.0829 -5.9696,0.32724 -8.1778,0.82617 -1.1041,0.24947 -2.0944,0.56191 -2.9961,0.94922 -0.9017,0.38731 -1.7149,0.85074 -2.4629,1.39844 -0.7479,0.5477 -1.4314,1.18146 -2.0742,1.91211 -0.6427,0.73064 -1.2458,1.558 -1.832,2.49414 -1.1724,1.87227 -2.2797,4.17828 -3.5176,7.00781 -1.2378,2.82954 -2.6047,6.18125 -4.2969,10.14844 -1.6921,3.96719 -3.7089,8.54874 -6.2441,13.83398 -3.5097,7.31675 -6.7293,14.79214 -9.9219,22.35938 -3.1926,7.56724 -6.3582,15.22657 -9.7656,22.91406 -1.7037,3.84375 -3.469,7.69554 -5.3262,11.54492 -1.8571,3.84939 -3.8076,7.69641 -5.8847,11.53516 -2.0772,3.83875 -4.281,7.66864 -6.6446,11.48047 -2.3635,3.81182 -4.885,7.60638 -7.6015,11.375 l -57.9063,-126.6211 c -3.2792,5.152 -6.3647,10.32057 -9.2988,15.50586 -2.9341,5.1853 -5.7179,10.3873 -8.3906,15.60157 -5.3455,10.42853 -10.2518,20.91126 -15.0547,31.42968 -4.803,10.51843 -9.5026,21.07283 -14.4336,31.64649 -2.4655,5.28683 -4.9881,10.57695 -7.6113,15.87109 -2.6233,5.29414 -5.3461,10.59155 -8.211,15.88867 -8.251,-17.83148 -16.1468,-34.54539 -23.7109,-50.76562 -7.5641,-16.22023 -14.798,-31.94716 -21.7285,-47.80664 -1.8917,-4.3275 -3.5508,-8.12232 -5.0879,-11.43555 -1.5371,-3.31323 -2.9524,-6.14397 -4.3555,-8.54101 -1.4031,-2.39705 -2.7936,-4.36051 -4.2832,-5.93946 -0.7448,-0.78947 -1.5145,-1.48259 -2.3223,-2.08593 -0.8077,-0.60335 -1.6544,-1.11741 -2.5527,-1.54688 -0.8983,-0.42947 -1.8488,-0.77511 -2.8652,-1.04297 -1.0165,-0.26785 -2.0977,-0.45766 -3.2598,-0.57617 z"
       style="fill:#00b0df"
       id="path27" />
    <path
       d="m 861.48242,294.0918 c -3.54662,-0.0231 -7.05777,0.16356 -10.57617,0.59961 -3.5184,0.43604 -7.04566,1.12109 -10.62891,2.08984 -0.64575,3.03275 -1.15775,6.02813 -1.50781,9.01172 -0.35006,2.98359 -0.5384,5.95608 -0.53516,8.93945 0.003,2.98337 0.1991,5.97768 0.61329,9.00977 0.41418,3.03209 1.04693,6.10072 1.92968,9.23047 3.65625,0.4085 7.2391,0.76009 10.76368,1.01367 3.52457,0.25358 6.99116,0.40937 10.41796,0.42969 3.42681,0.0203 6.81284,-0.0954 10.17579,-0.38672 3.36295,-0.2913 6.70411,-0.75821 10.0371,-1.43946 0.613,-1.51437 1.12361,-3.01052 1.54493,-4.49609 0.42132,-1.48557 0.75169,-2.9607 1.00586,-4.42969 0.50832,-2.93798 0.7085,-5.85389 0.69531,-8.79883 -0.0132,-2.94493 -0.23958,-5.91914 -0.57813,-8.96875 -0.33854,-3.0496 -0.79006,-6.17573 -1.25781,-9.42773 -3.88224,-0.7205 -7.63483,-1.30236 -11.30273,-1.71094 -3.66791,-0.40858 -7.25026,-0.64295 -10.79688,-0.66601 z"
       style="fill:#fab124;fill-opacity:1"
       id="path26" />
    <path
       d="M 840.15234,63.949219 V 256.52344 h 43.61719 V 63.949219 Z"
       style="fill:#fab124;fill-opacity:1"
       id="path25" />
    <path
       d="m 1024.8262,140.47852 c -3.2064,-0.0926 -6.3495,-0.0784 -9.4336,0.21093 -1.5421,0.14464 -3.0689,0.35861 -4.5821,0.66211 -1.5131,0.30351 -3.0128,0.69655 -4.498,1.20117 -1.3495,1.4925 -2.2842,3.00719 -2.9316,4.53321 -0.6475,1.52601 -1.0072,3.06425 -1.2032,4.60156 -0.3918,3.07462 -0.1312,6.14827 -0.2207,9.13477 -0.1862,6.20236 -0.435,11.71525 -0.8242,16.61132 -0.3891,4.89608 -0.9181,9.1761 -1.666,12.91797 -0.37398,1.87094 -0.80397,3.60785 -1.29688,5.21875 -0.49291,1.61091 -1.0503,3.09496 -1.68164,4.46485 -0.63134,1.36988 -1.33575,2.62556 -2.125,3.77343 -0.78925,1.14788 -1.66225,2.18794 -2.62891,3.13282 -0.96665,0.94487 -2.02785,1.7938 -3.1914,2.55468 -1.16355,0.76089 -2.42866,1.43534 -3.8086,2.03125 -1.37993,0.59592 -2.87443,1.11255 -4.49023,1.5625 -1.6158,0.44995 -3.35345,0.83325 -5.22461,1.15625 -3.74232,0.646 -8.01578,1.05633 -12.89648,1.3086 -4.88071,0.25226 -10.36993,0.34484 -16.54493,0.35547 -5.22799,0.009 -10.45364,-0.01 -15.68164,0 -4.37774,0.008 -8.2299,0.0427 -11.60546,0.16992 -3.37557,0.12726 -6.27534,0.34892 -8.74805,0.73047 -2.47271,0.38154 -4.51833,0.9225 -6.1875,1.69336 -0.83459,0.38542 -1.57424,0.82786 -2.22656,1.33593 -0.65233,0.50808 -1.21674,1.08288 -1.69922,1.73047 -0.48249,0.6476 -0.88393,1.36788 -1.20899,2.17188 -0.32505,0.80399 -0.57386,1.6907 -0.7539,2.66797 -0.36009,1.95454 -0.44235,4.27256 -0.29688,7.02148 0.14548,2.74892 0.5186,5.9291 1.07031,9.60742 0.55172,3.67832 1.28201,7.85491 2.14063,12.59766 3.39137,0.54312 6.77659,0.89305 10.15625,1.10937 3.37966,0.21633 6.75309,0.30008 10.11523,0.30664 6.72429,0.0131 13.40792,-0.27664 20.02735,-0.40039 3.30971,-0.0619 6.60215,-0.0834 9.87695,-0.004 3.2748,0.0795 6.53154,0.25984 9.76563,0.59765 3.23408,0.33782 6.4472,0.83368 9.63476,1.54688 3.18757,0.7132 6.34913,1.64398 9.48438,2.84961 2.16824,0.83325 4.13153,1.74508 5.90625,2.73047 1.77471,0.98538 3.36107,2.04321 4.78125,3.16601 1.42017,1.12281 2.6727,2.31113 3.77734,3.55664 1.10464,1.24552 2.06253,2.54883 2.89062,3.90235 0.8281,1.35351 1.52665,2.75828 2.11719,4.20507 0.59055,1.4468 1.07285,2.93557 1.46484,4.46094 0.784,3.05074 1.2099,6.24474 1.4336,9.52149 0.2237,3.27674 0.2452,6.63643 0.2207,10.02148 -0.024,3.38505 -0.096,6.79427 -0.057,10.16992 0.039,3.37566 0.1886,6.71825 0.6035,9.9668 0.2074,1.62428 0.4819,3.22449 0.8418,4.79492 0.3598,1.57043 0.8042,3.11141 1.3554,4.61328 3.5633,0.504 7.075,0.99832 10.5528,1.3711 3.4777,0.37278 6.9223,0.624 10.3554,0.64062 3.4332,0.0166 6.8536,-0.20115 10.2833,-0.76562 1.7148,-0.28224 3.4327,-0.65141 5.1542,-1.1211 1.7216,-0.46968 3.4482,-1.04131 5.1817,-1.72656 0.616,-7.40524 1.2578,-14.76063 1.5625,-22.01367 0.1523,-3.62652 0.2204,-7.22711 0.1582,-10.79492 -0.062,-3.56782 -0.2551,-7.10427 -0.6231,-10.59961 -0.3679,-3.49534 -0.9109,-6.95028 -1.6757,-10.35938 -0.7649,-3.40909 -1.7511,-6.77099 -3.0039,-10.08008 -1.2529,-3.30908 -2.7735,-6.56446 -4.6055,-9.75976 -1.8321,-3.1953 -3.9762,-6.33069 -6.4785,-9.39844 -0.9139,-1.1205 -1.6568,-2.19917 -2.2481,-3.24219 -0.5913,-1.04301 -1.031,-2.05037 -1.3359,-3.0332 -0.3049,-0.98283 -0.4747,-1.94093 -0.5293,-2.88086 -0.055,-0.93992 0.01,-1.86303 0.166,-2.77734 0.3189,-1.82863 1.0301,-3.62322 1.9883,-5.45313 0.9582,-1.8299 2.1624,-3.69456 3.4707,-5.66406 2.1179,-3.188 3.9757,-6.41437 5.5937,-9.67969 1.618,-3.26532 2.9975,-6.56851 4.1582,-9.91211 1.1608,-3.3436 2.1035,-6.72755 2.8497,-10.15039 0.7461,-3.42283 1.2957,-6.88564 1.6699,-10.38867 0.3741,-3.50303 0.5724,-7.04668 0.6172,-10.63086 0.045,-3.58418 -0.065,-7.20871 -0.3067,-10.875 -0.2419,-3.66628 -0.6155,-7.3737 -1.1015,-11.12305 -0.4861,-3.74935 -1.084,-7.53967 -1.7715,-11.37304 -3.477,0.15775 -6.8814,0.0837 -10.2188,-0.0527 -3.3373,-0.13647 -6.6081,-0.33706 -9.8144,-0.42968 z"
       style="fill:#00b0df"
       id="path24" />
    <path
       d="m 1172.6934,140.40039 c -10.0475,0.0208 -20.1021,0.21527 -30.1426,0.32227 -2.6653,0.0284 -5.2876,0.15932 -7.8633,0.38867 -2.5757,0.22935 -5.1047,0.55715 -7.582,0.98242 -2.4774,0.42527 -4.9033,0.94827 -7.2735,1.56445 -2.3702,0.61619 -4.6852,1.32681 -6.9394,2.12891 -2.2543,0.8021 -4.4467,1.69471 -6.5762,2.67773 -2.1295,0.98302 -4.1955,2.05591 -6.1914,3.21485 -1.9959,1.15894 -3.9237,2.40451 -5.7773,3.73437 -1.8537,1.32986 -3.6335,2.74446 -5.336,4.24024 -1.7024,1.49578 -3.3266,3.07181 -4.8691,4.72851 -1.5426,1.6567 -3.0032,3.39246 -4.377,5.20508 -1.3738,1.81263 -2.6611,3.70247 -3.8574,5.66602 -1.1963,1.96355 -2.3006,4.00185 -3.3105,6.11132 -1.01,2.10948 -1.9255,4.29062 -2.7403,6.54102 -0.8148,2.2504 -1.5297,4.5707 -2.1406,6.95703 -0.6109,2.38633 -1.1175,4.83821 -1.5156,7.35547 -0.3982,2.51726 -0.6867,5.099 -0.8633,7.74219 -0.6663,9.96674 -1.0363,19.95321 -1.2149,29.97461 -0.1785,10.02139 -0.1673,20.07773 -0.072,30.18359 0.1901,20.21173 0.7148,40.62308 0.7148,61.35156 5.5043,0.83325 10.3349,1.54882 14.5742,2.08789 4.2394,0.53908 7.886,0.90075 11.0254,1.02149 3.1395,0.12073 5.7702,0.002 7.9746,-0.41992 1.1023,-0.21089 2.0987,-0.4974 2.9981,-0.86719 0.8994,-0.36979 1.7027,-0.82297 2.4199,-1.36719 0.7172,-0.54422 1.3487,-1.1799 1.9043,-1.91406 0.5556,-0.73417 1.0346,-1.56623 1.4492,-2.50586 0.8292,-1.87927 1.3981,-4.18621 1.7871,-6.98047 0.389,-2.79426 0.5992,-6.07673 0.7129,-9.91016 0.1137,-3.83342 0.1295,-8.21809 0.1328,-13.21484 0.02,-26.19497 0.1628,-52.39378 -0.031,-78.59375 -0.02,-2.74875 0.067,-5.48271 0.3574,-8.13281 0.2908,-2.65011 0.7864,-5.21733 1.586,-7.63477 0.3997,-1.20872 0.8754,-2.38044 1.4394,-3.50586 0.564,-1.12542 1.2158,-2.2051 1.9688,-3.23047 0.7529,-1.02536 1.6075,-1.99573 2.5742,-2.90429 0.9666,-0.90856 2.045,-1.7543 3.25,-2.5293 3.3793,-2.17187 6.8008,-4.05624 10.2578,-5.67383 3.457,-1.61759 6.9489,-2.9682 10.4687,-4.07031 3.5199,-1.10211 7.0686,-1.9566 10.6368,-2.58203 3.5681,-0.62543 7.1561,-1.02142 10.7578,-1.20899 3.6016,-0.18756 7.2173,-0.16658 10.8379,0.0449 3.6205,0.2115 7.2464,0.61182 10.8711,1.18359 3.6246,0.57177 7.2471,1.31576 10.8613,2.20898 3.6142,0.89323 7.2196,1.93741 10.8086,3.11329 1.526,0.5 2.9591,1.05639 4.3047,1.66796 1.3455,0.61158 2.6048,1.27683 3.7812,1.99219 2.3528,1.43073 4.3773,3.06217 6.1211,4.86133 1.7439,1.79916 3.2063,3.76774 4.4316,5.87305 1.2253,2.1053 2.2146,4.34811 3.0118,6.69726 0.7971,2.34916 1.4019,4.80328 1.8613,7.33399 0.4594,2.53071 0.7723,5.13713 0.9844,7.78711 0.424,5.29994 0.4448,10.77644 0.4218,16.17968 -0.136,31.95397 -0.037,63.90194 -0.037,97.25391 7.8975,0.2605 14.8014,0.92688 21.1817,1.03125 3.1901,0.0522 6.2484,-0.0374 9.2363,-0.38672 2.9879,-0.34933 5.9048,-0.95867 8.8086,-1.95117 0.573,-1.796 1.2165,-3.29822 1.7187,-4.65234 0.5023,-1.35413 0.8641,-2.56004 0.8711,-3.76954 0.101,-18.33498 0.289,-36.6734 0.375,-55.00976 0.086,-18.33636 0.069,-36.67052 -0.2402,-55 -0.044,-2.591 -0.1926,-5.13274 -0.4453,-7.6211 -0.2527,-2.48835 -0.6091,-4.92364 -1.0645,-7.30273 -0.4553,-2.37909 -1.0105,-4.70163 -1.6621,-6.96484 -0.6515,-2.26321 -1.3989,-4.46867 -2.2402,-6.60938 -0.8413,-2.14071 -1.7762,-4.21692 -2.8008,-6.22851 -1.0246,-2.0116 -2.1383,-3.95813 -3.3398,-5.83399 -1.2015,-1.87585 -2.4914,-3.68251 -3.8633,-5.41601 -1.372,-1.73351 -2.8273,-3.39399 -4.3633,-4.97852 -1.5359,-1.58453 -3.1522,-3.09254 -4.8457,-4.52148 -1.6935,-1.42894 -3.4639,-2.77819 -5.3086,-4.04493 -1.8447,-1.26673 -3.7626,-2.45092 -5.7519,-3.54882 -1.9894,-1.09791 -4.0502,-2.10879 -6.1778,-3.03125 -2.1276,-0.92246 -4.3226,-1.7557 -6.582,-2.4961 -2.2595,-0.74039 -4.5839,-1.38773 -6.9688,-1.93945 -2.3848,-0.55172 -4.8301,-1.00882 -7.3339,-1.36524 -2.5038,-0.35641 -5.0654,-0.61307 -7.6817,-0.76757 -5.0047,-0.295 -10.0161,-0.48032 -15.0332,-0.58985 -5.017,-0.10953 -10.0407,-0.14318 -15.0644,-0.13281 z"
       style="fill:#00b0df"
       id="path23" />
    <path
       d="m 1411.9941,140.63086 c -5.6711,0.066 -11.3491,0.22656 -17.0156,0.22656 -6.0435,0.0877 -12.1386,-0.11258 -18.2207,-0.22265 -6.082,-0.11008 -12.1499,-0.13029 -18.1426,0.3164 -2.9963,0.22335 -5.9738,0.56434 -8.9238,1.06836 -2.95,0.50402 -5.874,1.17176 -8.7617,2.05078 -2.8877,0.87903 -5.7394,1.96806 -8.5488,3.31641 -2.8094,1.34835 -5.5759,2.95519 -8.2911,4.86719 -1.9428,1.36824 -3.8153,2.8784 -5.6171,4.51757 -1.8019,1.63918 -3.5319,3.40747 -5.1875,5.29493 -1.6557,1.88745 -3.2379,3.89276 -4.7422,6.00586 -1.5044,2.11309 -2.9314,4.33428 -4.2793,6.65039 -1.3479,2.3161 -2.6165,4.72814 -3.8028,7.22461 -1.1862,2.49646 -2.291,5.07627 -3.3105,7.73046 -1.0195,2.6542 -1.9532,5.3826 -2.8008,8.17188 -0.8476,2.78928 -1.6088,5.64124 -2.2793,8.54297 -0.6705,2.90173 -1.25,5.85221 -1.7383,8.84375 -0.4882,2.99154 -0.8847,6.02332 -1.1855,9.08203 -0.3009,3.05871 -0.5069,6.1448 -0.6152,9.24805 -0.1084,3.10324 -0.1187,6.22447 -0.029,9.34961 0.089,3.12513 0.278,6.25452 0.5703,9.3789 0.2922,3.12439 0.6872,6.24275 1.1875,9.34375 0.5002,3.101 1.1068,6.18526 1.8203,9.24024 0.7134,3.05497 1.535,6.08009 2.4668,9.0664 0.7186,2.3035 1.5003,4.52463 2.3457,6.66406 0.8453,2.13944 1.7535,4.19821 2.7265,6.17774 0.9731,1.97953 2.0097,3.87933 3.1114,5.70312 1.1017,1.82379 2.2686,3.57194 3.5,5.24414 1.2313,1.67221 2.5266,3.26819 3.8886,4.79297 1.3621,1.52478 2.7915,2.97787 4.2852,4.35938 1.4937,1.38151 3.0534,2.69314 4.6797,3.93555 1.6263,1.2424 3.3182,2.41598 5.0781,3.52343 1.7599,1.10746 3.5879,2.14834 5.4824,3.125 1.8946,0.97666 3.8566,1.88826 5.8868,2.73828 4.0602,1.70006 8.3913,3.15067 13,4.36914 4.6086,1.21848 9.4933,2.20445 14.6582,2.97461 5.1648,0.77017 10.6108,1.32457 16.3398,1.67969 6.3674,0.39481 12.4268,0.62868 18.1895,0.69531 5.7626,0.0666 11.2291,-0.0333 16.4121,-0.30273 5.1829,-0.26945 10.0807,-0.70882 14.7089,-1.32227 4.6282,-0.61344 8.9855,-1.40183 13.084,-2.36718 4.0985,-0.96536 7.9394,-2.10842 11.5332,-3.4336 3.5938,-1.32517 6.9406,-2.83248 10.0547,-4.52539 3.1141,-1.6929 5.9948,-3.57012 8.6543,-5.63867 2.6595,-2.06855 5.0983,-4.32719 7.3281,-6.7793 2.2299,-2.4521 4.251,-5.09783 6.0762,-7.9414 1.8252,-2.84358 3.4548,-5.88596 4.9004,-9.12891 1.4456,-3.24295 2.7078,-6.68765 3.7988,-10.33789 1.0911,-3.65024 2.01,-7.50487 2.7715,-11.57031 0.7615,-4.06545 1.3653,-8.34152 1.8223,-12.83008 0.4569,-4.48856 0.7679,-9.18979 0.9453,-14.10938 0.1774,-4.91958 0.2216,-10.05749 0.1445,-15.41601 -0.077,-5.35852 -0.2754,-10.93877 -0.582,-16.74414 -0.139,-2.63462 -0.3689,-5.21094 -0.6875,-7.72852 -0.3186,-2.51758 -0.7254,-4.97541 -1.2207,-7.37109 -0.4954,-2.39568 -1.0787,-4.72912 -1.7481,-6.99805 -0.6693,-2.26893 -1.4251,-4.474 -2.2656,-6.61133 -0.8404,-2.13732 -1.7666,-4.20811 -2.7754,-6.20898 -1.0087,-2.00087 -2.0992,-3.93146 -3.2734,-5.79102 -1.1742,-1.85955 -2.4307,-3.64793 -3.7676,-5.36132 -1.3369,-1.7134 -2.7552,-3.35169 -4.2519,-4.91407 -1.4968,-1.56237 -3.0728,-3.04857 -4.7266,-4.45507 -1.6538,-1.40651 -3.3854,-2.73274 -5.1934,-3.97852 -1.8079,-1.24578 -3.6929,-2.41004 -5.6523,-3.49023 -1.9594,-1.0802 -3.9936,-2.07657 -6.1016,-2.98633 -2.1079,-0.90977 -4.2893,-1.73427 -6.5429,-2.46875 -2.2537,-0.73448 -4.58,-1.37926 -6.9766,-1.9336 -2.3966,-0.55434 -4.8637,-1.01737 -7.4004,-1.38672 -2.5367,-0.36934 -5.1424,-0.64471 -7.8164,-0.82421 -5.641,-0.379 -11.3054,-0.4078 -16.9766,-0.3418 z m -15.8964,38.10742 c 6.3091,-0.004 11.9944,0.15962 17.1132,0.54492 5.1189,0.38531 9.6698,0.99334 13.7129,1.88282 2.0216,0.44473 3.9173,0.96039 5.6914,1.55273 1.7742,0.59234 3.4278,1.26131 4.9688,2.01562 1.541,0.75432 2.9687,1.59278 4.291,2.52344 1.3223,0.93067 2.5385,1.95283 3.6563,3.07422 1.1177,1.12139 2.1367,2.34148 3.0644,3.66797 0.9277,1.32649 1.7638,2.76068 2.5156,4.30664 0.7519,1.54596 1.4194,3.20458 2.0098,4.98438 0.5904,1.7798 1.1036,3.68096 1.5469,5.70898 0.8864,4.05604 1.4931,8.62267 1.8769,13.75781 0.3838,5.13515 0.5453,10.83873 0.541,17.16797 -0,5.8065 -0.1409,11.00629 -0.4804,15.66016 -0.3395,4.65386 -0.8809,8.76155 -1.6934,12.38476 -0.4062,1.81161 -0.8814,3.50131 -1.4316,5.07813 -0.5503,1.57682 -1.1754,3.04116 -1.8867,4.39844 -0.7114,1.35727 -1.5088,2.60678 -2.3985,3.75976 -0.8897,1.15298 -1.8718,2.20794 -2.957,3.17188 -1.0852,0.96393 -2.2725,1.83681 -3.5703,2.62695 -1.2979,0.79014 -2.7067,1.49732 -4.2344,2.12891 -1.5277,0.63158 -3.1745,1.18944 -4.9492,1.67773 -1.7747,0.48829 -3.678,0.90734 -5.7168,1.26758 -4.0778,0.72047 -8.7001,1.20026 -13.9375,1.5 -5.2374,0.29974 -11.0907,0.42087 -17.625,0.42187 -6.6231,0.001 -12.5363,-0.1093 -17.8145,-0.40039 -5.2782,-0.29108 -9.9209,-0.7643 -14.0019,-1.48633 -2.0405,-0.36101 -3.9401,-0.78453 -5.709,-1.27929 -1.7689,-0.49477 -3.4061,-1.06118 -4.9219,-1.70703 -1.5158,-0.64586 -2.9103,-1.37126 -4.1914,-2.18555 -1.2811,-0.81429 -2.4487,-1.71674 -3.5137,-2.7168 -1.0649,-1.00006 -2.0273,-2.0976 -2.8945,-3.30078 -0.8672,-1.20318 -1.6401,-2.51191 -2.3281,-3.93555 -0.688,-1.42363 -1.2912,-2.96161 -1.8184,-4.62304 -0.5272,-1.66144 -0.9784,-3.44671 -1.3633,-5.36328 -0.7698,-3.83316 -1.2745,-8.19263 -1.5859,-13.15039 -0.3114,-4.95777 -0.4289,-10.51326 -0.4297,-16.73438 -7e-4,-6.01737 0.1629,-11.44186 0.5488,-16.32812 0.386,-4.88627 0.994,-9.23409 1.8789,-13.09766 0.4425,-1.93178 0.9547,-3.74302 1.543,-5.43945 0.5883,-1.69644 1.2519,-3.27927 2,-4.75391 0.7481,-1.47464 1.58,-2.84103 2.502,-4.10742 0.922,-1.2664 1.935,-2.43221 3.0449,-3.50391 1.1099,-1.0717 2.317,-2.04889 3.6289,-2.93945 1.3119,-0.89056 2.728,-1.695 4.2559,-2.41797 1.5279,-0.72297 3.1678,-1.36466 4.9257,-1.93359 1.758,-0.56893 3.6347,-1.06375 5.6368,-1.49219 4.004,-0.85688 8.5096,-1.44603 13.5742,-1.82227 5.0646,-0.37623 10.6883,-0.54092 16.9258,-0.54492 z"
       style="fill:#00b0df"
       id="path22" />
    <path
       fill="#00b0df"
       d="M854.732 380.375c-58.383-44-81.821-103.628-79.614-175.288.972-31.51.359-63.077.095-94.615C774.677 46.299 731.38 2.3 667.556 2.203q-279.206-.426-558.413-.007C44.985 2.281 2.26 45.858 2.095 110.475q-.234 92.649-.007 185.3c.089 65.567 42.749 107.841 108.959 107.926q109.512.139 219.024.022 266.364-.22 532.729-.529h31.54zM315.025 129.744h-79.843v201.614h-51.78V130.84h-77.419V89.311h206.984c4.028 12.317 1.106 25.131 2.058 40.433zm169.091 202.951c-32.043-1.288-64.19 3.987-95.564-3.319-60.736-14.145-85.806-100.7-44.523-148.235 13.593-15.65 29.416-23.917 49.533-26.643 29.431-3.988 58.8-1.192 89.367-2.366 2.938 12.773 2.705 24.119.257 38.063-24.2 0-48.323-.582-72.41.171-22.079.69-29.4 8.78-31.02 32.987h104.3V261.3H380.447c-.369 24.376 4.778 31.9 25.451 32.915 25.45 1.247 51.007.3 76.122.3 4.691 13.334 2.797 24.312 2.096 38.18zm159.153-.249c-7.9-.02-10.841-6.854-14.9-11.646-19.834-23.425-39.354-47.115-62.78-75.272v85.638h-46.507V88.527c15.424-1.149 29.625-2.1 45.582.754v147.307c21.966-17.989 39.137-36.275 52.073-56.166 20.459-31.458 48.049-30.523 83.162-26.161-24.022 25.187-45.5 48.439-67.861 70.809-9.636 9.638-14.211 15.742-1.825 28.228 23.755 23.947 44.993 50.386 70.232 79.163-21.324 0-39.25.032-57.176-.015zM946.74 348.525v.037q1.063 0 1.063 1.173v8.835q0 .99-1.063.99h-22.436v5.938h15.1a.988.988 0 011.1 1.137v8.615a1.069 1.069 0 01-1.209 1.209h-14.991v9.165h22.986q.805 0 .806.991v8.908q0 1.026-.806 1.026h-28.008q-5.829 0-5.829-6.122v-35.6q0-6.267 5.829-6.268h27.458zM957.445 395.523v-28.631q0-6.2 5.535-6.2h32.188a22.232 22.232 0 016.011.751 14.639 14.639 0 014.657 2.181 11.752 11.752 0 013.647 4.71 16.891 16.891 0 011.228 6.728v20.529q0 .954-1.027.953h-7.808q-.99 0-.99-.953V376.13q0-3.885-1.8-5.463-1.392-1.319-4.838-1.392h-5.237v26.321q0 .954-1.063.953h-7.808q-.99 0-.99-.953v-26.321h-11.8v26.321q0 .954-1.026.953h-7.882q-.99 0-.989-.953zM1034.136 360.66a16.689 16.689 0 016.654 1.283 17.087 17.087 0 015.444 3.775q4.839 5.171 4.839 13.381 0 8.065-3.739 13.124a12.542 12.542 0 01-10.558 5.06 11.08 11.08 0 01-7.662-2.75v9.935a.947.947 0 01-.147.567 1.736 1.736 0 01-.4.386l-8.285 3.886q-1.063.587-1.064-.844v-41.974q0-5.829 5.683-5.829zm7.075 18.515v.037q0-5.645-1.723-8.028a5.97 5.97 0 00-5.353-2.529h-5.024v16.642a8.021 8.021 0 006.379 2.97q5.718 0 5.719-9.055zM1057.232 378.549v.111a22.432 22.432 0 011.192-7.516 18.254 18.254 0 013.5-6.012 15.551 15.551 0 0112.024-5.242 15.3 15.3 0 0111.987 5.242 17.4 17.4 0 013.557 6.031 22.832 22.832 0 011.173 7.5q0 8.175-4.73 13.49a15.446 15.446 0 01-11.987 5.133 15.7 15.7 0 01-12.024-5.133 18.649 18.649 0 01-3.5-6.049 22.189 22.189 0 01-1.192-7.441zm23.646.111a13.8 13.8 0 00-.477-3.813 10.718 10.718 0 00-1.32-2.932 5.782 5.782 0 00-5.132-2.64q-6.819 0-6.818 9.385t6.818 9.384a5.652 5.652 0 005.132-2.9 10.815 10.815 0 001.32-2.9 12.679 12.679 0 00.477-3.584zM1143.271 360.622v.038q1.026 0 .7 1.283l-9.421 31.343a5.385 5.385 0 01-1.778 3.08 4.624 4.624 0 01-3.135.917q-3.813 0-4.912-4.18l-4.032-15.837-.7-3.775-.659 3.885-3.923 15.727a6 6 0 01-1.8 3.281 4.714 4.714 0 01-3.226 1.008q-3.813-.183-5.022-4.106l-9.238-31.343q-.4-1.284.77-1.283h7.918a.966.966 0 01.642.2.955.955 0 01.275.679l4.142 16.5.66 4.509.917-4.546 3.739-13.71a4.833 4.833 0 014.986-3.886 4.956 4.956 0 013.244 1.008 5.924 5.924 0 011.814 3.025l3.446 13.27 1.064 4.8.989-4.912 3.887-16.056c.17-.587.464-.88.879-.88h7.772zM1160.722 381.739v.073q.44 6.453 7.552 6.452a8.421 8.421 0 005.865-2.017l1.173-.036 5.5 4.693q.734.624.073 1.21a16.629 16.629 0 01-12.61 5.169q-7.992 0-12.758-5.06a17.424 17.424 0 01-3.5-5.957 22.82 22.82 0 01-1.191-7.606 22.465 22.465 0 011.191-7.5 18.243 18.243 0 013.5-6.031 15.156 15.156 0 0111.768-5.279 13.465 13.465 0 0111.548 5.865 18.81 18.81 0 013.116 6.508 27.093 27.093 0 01.769 8.047q-.072 1.539-1.429 1.539h-20.566zm12.648-6.783q-.734-6.819-6.563-6.818a5.157 5.157 0 00-2.345.514 5.964 5.964 0 00-1.871 1.5 7.562 7.562 0 00-1.209 2.144 8.945 8.945 0 00-.513 2.657zM1195.988 360.66l4.949.037q11.071 0 13.051 1.979a1.371 1.371 0 01.367 1.393l-1.613 6.782q-.22 1.064-1.467.366l-3.372-.769-5.06-.477h-2.456v25.552q0 1.026-.99 1.026h-7.955a.9.9 0 01-.953-1.026v-28.741q0-6.086 5.5-6.085zM1231.695 381.739v.073q.439 6.453 7.552 6.452a8.421 8.421 0 005.865-2.017l1.173-.036 5.5 4.693q.732.624.073 1.21a16.63 16.63 0 01-12.61 5.169q-7.992 0-12.758-5.06a17.426 17.426 0 01-3.5-5.957 22.823 22.823 0 01-1.192-7.606 22.468 22.468 0 011.192-7.5 18.246 18.246 0 013.5-6.031 15.155 15.155 0 0111.768-5.279 13.462 13.462 0 0111.547 5.865 18.8 18.8 0 013.117 6.508 27.162 27.162 0 01.769 8.047q-.073 1.539-1.43 1.539h-20.565zm12.647-6.783q-.734-6.819-6.562-6.818a5.163 5.163 0 00-2.346.514 5.972 5.972 0 00-1.87 1.5 7.562 7.562 0 00-1.21 2.144 8.945 8.945 0 00-.513 2.657zM1290.497 345.703q.953-.368.953.989v44.1q0 5.757-5.756 5.756h-9.275q-8.176 0-12.464-4.765a14.645 14.645 0 01-3.281-5.554 23.968 23.968 0 01-1.082-7.57q0-8.4 3.813-13.418a12.141 12.141 0 0110.6-5.389 11.6 11.6 0 014.178.715 10.791 10.791 0 013.411 2.108v-12.06a1.012 1.012 0 01.659-.99zm-8.908 42.745V371.84a8.906 8.906 0 00-2.769-2.18 7.72 7.72 0 00-3.464-.752q-5.867 0-5.865 10.3 0 9.349 6.928 9.348h5.17zM1328.218 362.932a10.968 10.968 0 017.663-3.079 12.36 12.36 0 0110.045 4.583q4.25 5.023 4.251 14.663a22.251 22.251 0 01-1.081 7.2 14.491 14.491 0 01-3.318 5.481q-4.436 4.764-12.28 4.765h-9.495q-5.682 0-5.683-5.645v-40.102a1.17 1.17 0 01.66-1.137l8.248-3.958q.99-.368.99 1.136zm12.1 16.24v.037q0-10.3-6.269-10.3a7.466 7.466 0 00-5.829 2.932v16.717h5.28q6.819-.183 6.818-9.348zM1393.179 360.622v.038q1.174 0 .587 1.319l-18.109 46.228a1.366 1.366 0 01-1.32.916h-7.406q-1.32 0-.806-1.172l4.546-11.4-13.86-34.576q-.549-1.32.624-1.319h8.614a1.2 1.2 0 011.248 1.063l5.718 16.276 2.419 7.809q.4-1.8.99-3.758t1.32-4.051l5.719-16.276a1.373 1.373 0 011.43-1.063h8.284zM1425.476 357.654v.036a5.383 5.383 0 01-3.959-1.612 5.02 5.02 0 01-1.649-3.887 5.345 5.345 0 01.4-2.071 5.246 5.246 0 011.246-1.778 5.564 5.564 0 013.959-1.65 5.646 5.646 0 013.959 1.65 5.272 5.272 0 011.651 3.849 5.161 5.161 0 01-1.651 3.887 5.46 5.46 0 01-3.959 1.612zm-5.095 4.069a1.053 1.053 0 01.275-.807.959.959 0 01.678-.256h7.919q.989 0 .989 1.063v33.8q0 1.026-.989 1.026h-7.919a.9.9 0 01-.953-1.026zM1444.759 360.622l11 .038q6.707 0 10.63 2.932 4.95 3.63 4.95 11.364v20.567a.908.908 0 01-1.027 1.026h-7.919q-.916 0-.916-1.026V376.13a11.99 11.99 0 00-.4-3.3 4.307 4.307 0 00-1.32-2.163 7.584 7.584 0 00-4.875-1.392h-5.756v26.248a.908.908 0 01-1.027 1.026h-7.808q-1.063 0-1.064-1.026v-28.741q0-6.121 5.536-6.122zM1486.405 360.622l11 .038q6.708 0 10.631 2.932 4.95 3.63 4.949 11.364v20.567a.907.907 0 01-1.026 1.026h-7.919c-.612 0-.916-.342-.916-1.026V376.13a11.95 11.95 0 00-.4-3.3 4.3 4.3 0 00-1.32-2.163 7.58 7.58 0 00-4.875-1.392h-5.756v26.248a.907.907 0 01-1.026 1.026h-7.809q-1.063 0-1.063-1.026v-28.741q0-6.121 5.536-6.122zM1520.645 378.549v.111a22.436 22.436 0 011.192-7.516 18.274 18.274 0 013.5-6.012 15.55 15.55 0 0112.024-5.242 15.3 15.3 0 0111.987 5.242 17.4 17.4 0 013.557 6.031 22.832 22.832 0 011.173 7.5q0 8.175-4.73 13.49a15.446 15.446 0 01-11.987 5.133 15.7 15.7 0 01-12.024-5.133 18.669 18.669 0 01-3.5-6.049 22.192 22.192 0 01-1.192-7.441zm23.646.111a13.765 13.765 0 00-.477-3.813 10.722 10.722 0 00-1.32-2.932 5.782 5.782 0 00-5.132-2.64q-6.819 0-6.818 9.385t6.818 9.384a5.652 5.652 0 005.132-2.9 10.819 10.819 0 001.32-2.9 12.643 12.643 0 00.477-3.584zM1594.697 360.622v.038c.391 0 .636.1.733.311a.911.911 0 01-.146.825l-11.218 30.611q-1.869 4.986-6.488 5.095-4.73.147-6.636-5.131l-11.331-30.612q-.33-1.1.587-1.1h8.8a1.022 1.022 0 01.678.2 1.683 1.683 0 01.422.641l5.792 17.854 1.687 6.049 1.649-6.012 5.939-18a.849.849 0 01.33-.55 1.108 1.108 0 01.66-.183h8.541zM1605.731 363.189a19.108 19.108 0 015.884-2.529 29.526 29.526 0 017.131-.807q6.818 0 10.777 3.263a11.23 11.23 0 014.143 9.2v18.33a5.9 5.9 0 01-1.54 4.362 5.193 5.193 0 01-3.886 1.54h-11.218a24.022 24.022 0 01-5.92-.66 15.244 15.244 0 01-4.564-1.942q-4.475-3.079-4.473-9.239a10.606 10.606 0 014.4-9.018 16.753 16.753 0 0110.264-2.97 31.055 31.055 0 014.4.276 9.318 9.318 0 013.115.934v-1.649a3.6 3.6 0 00-1.356-3.006 6.112 6.112 0 00-4.142-1.394 23.664 23.664 0 00-5.152.514 17.64 17.64 0 00-4.16 1.466.83.83 0 01-1.32-.4l-2.6-4.948a1.17 1.17 0 01-.219-.806.865.865 0 01.436-.517zm18.513 25.515v-7.478a14.641 14.641 0 00-6.635-1.32q-5.646 0-5.645 4.509 0 4.4 6.122 4.4h6.158zM1645.176 351.898v.037a1.072 1.072 0 01.129-.55 1.13 1.13 0 01.532-.4l8.174-3.887q.515-.293.734-.036a1.438 1.438 0 01.22.916v12.685h8.065q.771 0 .77 1.136v6.856q0 1.063-.806 1.062h-8.029v14q0 4.328 3.556 4.326a6.045 6.045 0 002.218-.422 6.162 6.162 0 002.034-1.337l.88-.22a.814.814 0 01.294.88l-1.064 7.478a1.726 1.726 0 01-.384.642 7.408 7.408 0 01-.606.531 8.809 8.809 0 01-2.968 1.283 16.445 16.445 0 01-3.813.4 9.367 9.367 0 01-7.259-3.006 11.446 11.446 0 01-2.677-7.846v-16.712h-5.242a.923.923 0 01-1.026-1.062v-6.856a.989.989 0 011.1-1.136h5.168v-8.762zM1678.758 357.654v.036a5.381 5.381 0 01-3.959-1.612 5.017 5.017 0 01-1.65-3.887 5.345 5.345 0 01.4-2.071 5.235 5.235 0 011.247-1.778 5.561 5.561 0 013.959-1.65 5.644 5.644 0 013.958 1.65 5.272 5.272 0 011.651 3.849 5.161 5.161 0 01-1.651 3.887 5.459 5.459 0 01-3.958 1.612zm-5.1 4.069a1.057 1.057 0 01.275-.807.959.959 0 01.678-.256h7.919q.989 0 .989 1.063v33.8q0 1.026-.989 1.026h-7.919a.9.9 0 01-.953-1.026zM1690.635 378.549v.111a22.436 22.436 0 011.192-7.516 18.291 18.291 0 013.5-6.012 15.552 15.552 0 0112.024-5.242 15.3 15.3 0 0111.988 5.242 17.416 17.416 0 013.556 6.031 22.832 22.832 0 011.173 7.5q0 8.175-4.729 13.49a15.449 15.449 0 01-11.988 5.133 15.705 15.705 0 01-12.024-5.133 18.687 18.687 0 01-3.5-6.049 22.192 22.192 0 01-1.192-7.441zm23.646.111a13.765 13.765 0 00-.477-3.813 10.718 10.718 0 00-1.32-2.932 5.782 5.782 0 00-5.132-2.64q-6.819 0-6.818 9.385t6.818 9.384a5.652 5.652 0 005.132-2.9 10.815 10.815 0 001.32-2.9 12.643 12.643 0 00.477-3.584zM1737.596 360.622l11 .038q6.708 0 10.631 2.932 4.95 3.63 4.95 11.364v20.567a.908.908 0 01-1.027 1.026h-7.919q-.917 0-.916-1.026V376.13a11.985 11.985 0 00-.4-3.3 4.307 4.307 0 00-1.32-2.163 7.584 7.584 0 00-4.875-1.392h-5.756v26.248a.908.908 0 01-1.027 1.026h-7.808q-1.063 0-1.064-1.026v-28.741q0-6.121 5.536-6.122z"
       id="path3" />
  </g>
</svg>
